<?xml version="1.0" encoding="utf-8"?>
<!-- Generator: Adobe Illustrator 26.5.0, SVG Export Plug-In . SVG Version: 6.00 Build 0)  -->
<svg version="1.1" id="Ebene_1" xmlns="http://www.w3.org/2000/svg" xmlns:xlink="http://www.w3.org/1999/xlink" x="0px" y="0px"
	 viewBox="0 0 116.2 101.5" style="enable-background:new 0 0 116.2 101.5;" xml:space="preserve">
<style type="text/css">
	.st0{fill:#FFDC00;}
</style>
<path class="st0" d="M116.1,53.6c-0.1,0.1-17.3,6.9-26.3-5.7C77,32.5,65.7,18.4,51,20.7c-7.4,4.7-13.4,11.7-16.8,20.4
	c-3.7,9.4-3.7,19.3-0.9,28.2c0.3,0.5,7.9,10.9,19.8,11.9c12.2,1,18.7-4.2,29.3-0.1c6.2,2.4,11.8,7.1,15.3,10.5
	c6.9-4.7,12.4-11.4,15.7-19.7C115.6,65.9,116.5,59.6,116.1,53.6z"/>
<path d="M91.9,96.7c-3.2-3-7.8-6.7-12.8-8.7c-2.3-0.9-4.5-1.3-6.9-1.3c-2.3,0-4.5,0.4-7.1,0.8c-6.2,1-13,1.7-19.1-0.1
	c-5.2-1.5-10-4.7-14.7-7.3c-7.1-3.8-14.6-7-22.8-7.3c-1.4,0-2.8,0-4.2,0.3c-1.6,0.3-3.1,1.1-4.2,2.3c-0.2,0.2,0,0.6,0.3,0.6
	c0.7,0,1.7,0,2,0c1,0.1,2,0.3,3,0.4c2,0.3,4,0.7,6,1.2c4,1,7.9,2.3,11.7,3.9c3.2,1.3,6.2,2.9,9.2,4.6c8,4.4,16,9.1,24.6,12.5
	c11.3,4.4,23.3,3.6,33.5-1.1C91.2,97,91.9,96.7,91.9,96.7z"/>
<path d="M85.5,11.3C85.5,11.3,85.4,11.3,85.5,11.3c-11.7-5.8-25.3-4.7-37.8-6c-6.2-0.6-12.4-1.6-18.5-2.8c-2.8-0.6-5.5-1.1-8.3-1.9
	c-0.6-0.2-4.3-1.3-4.2,0.2c0.1,0.7,1.9,2,2.5,2.4c2.1,1.5,4.4,2.6,6.8,3.4c11.5,4,24,3.9,35.5,7.8c10.3,3.5,18.2,11.2,25.1,19.3
	c1.7,2,3.5,4.1,5.2,6.1c1.7,2.1,3.3,4.4,5.7,5.9s5.3,2,8.1,2c4.8,0,8.8-1.6,8.8-1.6l0.9-0.4c0.6-0.3-0.7-4.9-0.9-5.3
	c-1.7-5.3-5.2-9.9-9-13.8C99.9,20.6,92.9,15,85.5,11.3z"/>
</svg>
