<?xml version="1.0" encoding="UTF-8" standalone="no"?>
<svg
   xmlns:dc="http://purl.org/dc/elements/1.1/"
   xmlns:cc="http://creativecommons.org/ns#"
   xmlns:rdf="http://www.w3.org/1999/02/22-rdf-syntax-ns#"
   xmlns:svg="http://www.w3.org/2000/svg"
   xmlns="http://www.w3.org/2000/svg"
   viewBox="0 0 453.53333 89.773331"
   height="89.773331"
   width="453.53333"
   xml:space="preserve"
   id="svg2"
   version="1.1"><metadata
     id="metadata8"><rdf:RDF><cc:Work
         rdf:about=""><dc:format>image/svg+xml</dc:format><dc:type
           rdf:resource="http://purl.org/dc/dcmitype/StillImage" /></cc:Work></rdf:RDF></metadata><defs
     id="defs6" /><g
     transform="matrix(1.3333333,0,0,-1.3333333,0,89.773333)"
     id="g10"><g
       transform="scale(0.1)"
       id="g12"><path
         id="path14"
         style="fill:#231f20;fill-opacity:1;fill-rule:nonzero;stroke:none"
         d="m 362.281,259.32 c -0.195,-27.882 22.313,-50.593 50.176,-50.715 27.91,-0.148 50.613,22.34 50.742,50.2 0.164,27.859 -22.344,50.593 -50.207,50.711 -27.859,0.152 -50.586,-22.336 -50.711,-50.196 m 0.731,154.352 c -0.117,-27.887 22.375,-50.57 50.226,-50.688 27.86,-0.152 50.625,22.313 50.762,50.196 0.105,27.886 -22.363,50.593 -50.246,50.742 -27.879,0.121 -50.594,-22.344 -50.742,-50.25 z M 209.379,260.449 c -0.125,-27.859 22.383,-50.59 50.246,-50.691 27.859,-0.149 50.594,22.316 50.711,50.199 0.148,27.887 -22.332,50.594 -50.223,50.742 -27.851,0.121 -50.586,-22.371 -50.734,-50.25 z m 0.019,154.008 c -0.144,-27.887 22.364,-50.594 50.227,-50.719 27.879,-0.144 50.594,22.344 50.711,50.203 0.148,27.883 -22.332,50.594 -50.223,50.743 -27.851,0.121 -50.586,-22.368 -50.715,-50.227 z M 338.316,673.254 C 524.234,672.32 674.176,520.863 673.266,334.949 672.309,149.039 520.902,-0.902344 334.938,0.00390625 149.098,0.9375 -0.863281,152.398 0.015625,338.313 0.953125,524.199 152.457,674.16 338.316,673.254 v 0" /><path
         id="path16"
         style="fill:none;stroke:#ffffff;stroke-width:39.79779816;stroke-linecap:butt;stroke-linejoin:miter;stroke-miterlimit:4;stroke-dasharray:none;stroke-opacity:1"
         d="M 338.004,602.652 C 484.898,601.914 603.441,482.211 602.691,335.293 601.977,188.398 482.27,69.8711 335.355,70.6094 188.453,71.3477 69.9063,191.02 70.6484,337.965 71.3828,484.863 191.129,603.363 338.004,602.652 Z" /><path
         id="path18"
         style="fill:#231f20;fill-opacity:1;fill-rule:nonzero;stroke:none"
         d="m 829.703,292.207 c 0.613,-44.977 17.235,-94.242 73.914,-94.242 56.672,0 73.321,49.265 73.906,94.242 -0.585,44.977 -17.234,94.27 -73.906,94.27 -56.679,0 -73.301,-49.293 -73.914,-94.27 m 145.371,-125.66 h -1.222 c -18.497,-22.168 -42.528,-37.598 -87.481,-37.598 -80.086,0 -135.535,73.332 -135.535,163.258 0,89.949 55.449,163.25 135.535,163.25 36.965,0 65.899,-12.922 88.703,-33.863 v 153.371 h 75.146 V 136.359 h -75.146 v 30.188 0" /><path
         id="path20"
         style="fill:#231f20;fill-opacity:1;fill-rule:nonzero;stroke:none"
         d="m 1124.14,448.074 h 75.15 v -43.133 h 1.25 c 17.86,35.727 52.34,50.516 96.09,50.516 v -76.391 c -51.13,0 -97.34,-24.007 -97.34,-91.765 V 136.359 h -75.15 v 311.715" /><path
         id="path22"
         style="fill:#231f20;fill-opacity:1;fill-rule:nonzero;stroke:none"
         d="m 1551.65,332.25 c 0,16.656 -20.33,61.609 -70.82,61.609 -43.73,0 -72.72,-28.328 -80.71,-61.609 h 151.53 m -151.53,-57.898 c 1.22,-46.204 40.05,-76.387 80.71,-76.387 59.13,0 82.54,33.867 89.92,44.359 l 63.44,-36.957 c -23.4,-35.726 -68.34,-76.418 -153.36,-76.418 -101.04,0 -159.58,70.242 -159.58,163.258 0,93.043 58.54,163.25 159.58,163.25 104.08,0 149.67,-69.594 149.67,-181.105 h -230.38 v 0" /><path
         id="path24"
         style="fill:#231f20;fill-opacity:1;fill-rule:nonzero;stroke:none"
         d="m 1884.24,349.492 c -9.24,20.356 -33.88,44.367 -78.24,44.367 -35.11,0.61 -57.27,-11.703 -57.27,-30.191 0,-54.199 196.51,-7.992 196.51,-125.66 0,-75.16 -67.15,-109.059 -138.61,-109.059 -73.29,0 -123.18,25.285 -150.91,56.699 l 56.7,43.727 c 17.21,-25.258 49.84,-38.816 89.89,-38.816 35.72,0 60.37,19.714 60.37,36.367 0,52.972 -192.8,9.222 -192.8,127.523 0,70.207 61,101.008 138,101.008 74.53,0 113.92,-38.18 128.75,-56.672 l -52.39,-49.293" /><path
         id="path26"
         style="fill:#231f20;fill-opacity:1;fill-rule:nonzero;stroke:none"
         d="m 2192.25,349.492 c -9.22,20.356 -33.87,44.367 -78.22,44.367 -35.12,0.61 -57.29,-11.703 -57.29,-30.191 0,-54.199 196.49,-7.992 196.49,-125.66 0,-75.16 -67.13,-109.059 -138.6,-109.059 -73.3,0 -123.2,25.285 -150.91,56.699 l 56.68,43.727 c 17.24,-25.258 49.88,-38.816 89.96,-38.816 35.7,0 60.35,19.714 60.35,36.367 0,52.972 -192.83,9.222 -192.83,127.523 0,70.207 61.01,101.008 138,101.008 74.54,0 113.95,-38.18 128.75,-56.672 l -52.38,-49.293" /><path
         id="path28"
         style="fill:#231f20;fill-opacity:1;fill-rule:nonzero;stroke:none"
         d="m 2299.46,136.359 h 75.1484 V 574.964 H 2299.46 Z" /><path
         id="path30"
         style="fill:#231f20;fill-opacity:1;fill-rule:nonzero;stroke:none"
         d="m 2633.93,292.207 c -9.86,-4.906 -22.17,-8.609 -35.7,-11.09 l -41.29,-8.601 c -28.32,-5.543 -51.76,-13.567 -51.76,-43.141 0,-23.395 21.58,-38.816 48.65,-38.816 35.14,0 80.1,17.257 80.1,57.308 v 44.34 m 75.16,-103.492 c 0,-32.024 7.4,-45.586 11.7,-52.356 h -79.46 c -4.92,7.407 -7.4,20.332 -7.4,28.325 -28.94,-23.395 -62.83,-35.735 -101.62,-35.735 -59.16,0 -105.98,37.598 -105.98,97.977 0,60.988 48.67,88.09 94.89,97.332 l 31.38,6.156 c 27.13,5.543 62.25,11.699 81.33,18.492 v 9.219 c 0,30.801 -26.48,39.434 -59.12,39.434 -43.73,0 -57.91,-12.95 -57.91,-46.817 l -75.16,3.067 c 0,73.324 64.69,101.648 133.07,101.648 67.13,0 134.28,-13.559 134.28,-102.258 v -164.484 0" /><path
         id="path32"
         style="fill:#231f20;fill-opacity:1;fill-rule:nonzero;stroke:none"
         d="m 2779.3,448.074 h 75.14 v -30.797 h 1.29 c 22.17,27.098 54.82,38.18 84.98,38.18 73.92,0 107.19,-37.566 107.19,-105.965 V 136.359 h -75.16 v 190.348 c 0,28.352 -12.91,56.063 -51.74,56.063 -36.35,0 -66.56,-24.645 -66.56,-81.93 V 136.359 h -75.14 v 311.715" /><path
         id="path34"
         style="fill:#231f20;fill-opacity:1;fill-rule:nonzero;stroke:none"
         d="m 3180.94,292.207 c 0.65,-44.977 17.27,-94.242 73.95,-94.242 56.68,0 73.3,49.265 73.92,94.242 -0.62,44.977 -17.24,94.27 -73.92,94.27 -56.68,0 -73.3,-49.293 -73.95,-94.27 m 145.41,-125.66 h -1.25 c -18.47,-22.168 -42.48,-37.598 -87.46,-37.598 -80.08,0 -135.53,73.332 -135.53,163.258 0,89.949 55.45,163.25 135.53,163.25 36.94,0 65.94,-12.922 88.71,-33.863 v 153.371 h 75.16 V 136.359 h -75.16 v 30.188 0" /></g></g></svg>