<svg id="Ebene_1" data-name="Ebene 1" xmlns="http://www.w3.org/2000/svg" width="352.778mm" height="81.796mm" viewBox="0 0 1000 231.864">
  <g>
    <g>
      <path d="M637.078,105.86c-12.914,0-24.662,4.933-31.334,10.446V173.62h11.749V121.527a37.882,37.882,0,0,1,18.423-4.784c13.2,0,20.019,6.09,20.019,21.032V173.62h11.748V133.712C667.683,118.919,658.4,105.86,637.078,105.86Z"/>
      <polygon points="277.769 173.58 289.887 173.58 289.887 81.947 277.769 84.277 277.769 173.58"/>
      <path d="M345.636,105.86c-17.769,0-32.985,13.731-32.985,34.6s15.347,34.6,35.813,34.6c8.617,0,17.77-2.423,23.695-6.194V155.941c-6.056,4.577-13.73,8.217-22.889,8.217-13.056,0-22.752-7.137-24.5-20.2h50.618a40.894,40.894,0,0,0,.406-6.057C375.794,117.168,361.794,105.86,345.636,105.86Zm-20.6,28.541c2.154-12.251,11.576-17.633,20.329-17.633,7.943,0,17.639,4.44,18.714,17.633Z"/>
      <path d="M553.271,105.86c-20.061,0-35.009,15.079-35.009,34.6s14.948,34.6,35.009,34.6,35-15.079,35-34.6S573.326,105.86,553.271,105.86Zm0,58.161c-13.2,0-22.889-10.234-22.889-23.558s9.69-23.564,22.889-23.564,22.884,10.234,22.884,23.564S566.464,164.021,553.271,164.021Z"/>
      <path d="M721.177,105.86a35.058,35.058,0,0,0-18.713,5.388l-.269-.137V81.947l-12.118,2.33v89.3l11.713-2.017a43.326,43.326,0,0,0,16.564,3.5c20.329,0,35.134-15.079,35.134-35.54C753.488,119.459,739.084,105.86,721.177,105.86Zm-2.423,58.566a35.648,35.648,0,0,1-16.559-4.308V122.961a27.285,27.285,0,0,1,17.5-6.193c13.061,0,21.54,10.1,21.54,23.426C741.237,154.056,732.216,164.426,718.754,164.426Z"/>
      <path d="M783.775,117.168l-.269-.132v-9.7l-12.119,2.33v63.91h12.119V130.5c4.171-7.136,10.5-11.713,19.524-11.713a19.62,19.62,0,0,1,4.708.537V107.34a16.557,16.557,0,0,0-4.308-.537A24.144,24.144,0,0,0,783.775,117.168Z"/>
      <path d="M872,157.427v-28.14c0-8.211-2.7-13.868-6.6-17.37-4.714-4.308-11.713-6.057-19.787-6.057-9.833,0-16.964,2.56-22.084,5.657v11.845a34.548,34.548,0,0,1,20.33-6.594c5.657,0,9.7,1.343,12.251,3.634,2.559,2.422,3.77,6.056,3.77,10.9v5.519a58.192,58.192,0,0,0-14.135-1.748c-6.868,0-13.6,1.211-18.581,4.445a18.4,18.4,0,0,0-8.748,16.153,17.653,17.653,0,0,0,7,14.678c4.446,3.366,10.365,4.709,15.753,4.709,8.885,0,16.559-3.771,20.33-7.268h.268c2.56,4.708,7.537,7,12.788,7a17.23,17.23,0,0,0,6.462-1.211v-10.1a9.255,9.255,0,0,1-3.9.943C873.478,164.426,872,161.461,872,157.427Zm-12.12,1.074a27.6,27.6,0,0,1-16.558,5.788c-7.136,0-12.656-3.228-12.656-9.691,0-7.81,8.079-10.233,16.29-10.233a50,50,0,0,1,12.924,1.749Z"/>
      <g>
        <polygon points="901.03 173.58 913.149 173.58 913.149 107.34 901.03 109.67 901.03 173.58"/>
        <path d="M907.092,79.829a8.482,8.482,0,1,0,8.479,8.479A8.448,8.448,0,0,0,907.092,79.829Z"/>
      </g>
      <path d="M969.4,105.86c-12.914,0-24.662,4.933-31.334,10.446V173.62H949.81V121.527a37.882,37.882,0,0,1,18.423-4.784c13.2,0,20.019,6.09,20.019,21.032V173.62H1000V133.712C1000,118.919,990.716,105.86,969.4,105.86Z"/>
      <path d="M472.581,106.737c-9.117,0-18.089,4.344-24.019,9.552-4.776-5.787-12.3-9.552-22.281-9.552-12.01,0-23.875,4.92-30.093,10.419v57.3h11.718V122.219a32.867,32.867,0,0,1,16.637-4.627c13.747,0,18.231,9.4,18.231,20.4v36.468h11.718v-50.5a24.343,24.343,0,0,1,16.35-6.361c13.748,0,18.232,9.4,18.232,20.4v36.468h11.717V133.07C500.791,119.326,490.664,106.737,472.581,106.737Z"/>
    </g>
    <path d="M109.282,189.076a74.971,74.971,0,0,1-68.635-20.363A74.442,74.442,0,0,1,18.758,115.7l.082-83.271L.116,0,0,115.631a93.713,93.713,0,0,0,119.042,90.35Z"/>
    <path d="M183.252,208.79A93.686,93.686,0,0,0,63.291,69.631l9.377,16.244a74.93,74.93,0,0,1,74.963,129.748l9.391,16.241A93.321,93.321,0,0,0,183.252,208.79Z"/>
  </g>
</svg>
