<?xml version="1.0" encoding="utf-8"?>
<!-- Generator: Adobe Illustrator 27.0.0, SVG Export Plug-In . SVG Version: 6.00 Build 0)  -->
<svg version="1.1" id="Ebene_1" xmlns="http://www.w3.org/2000/svg" xmlns:xlink="http://www.w3.org/1999/xlink" x="0px" y="0px"
	 viewBox="0 0 459.9 267.4" style="enable-background:new 0 0 459.9 267.4;" xml:space="preserve">
<g>
	<path d="M90.1,234.3c-4.5,1.3-9.1,2.7-13.6,4.2l-3.8,1.2l-26.4-81.4L0,172.4l38.3,38.1l-9.4,56.9l57.6-17.5c4.2-1.3,6.6-5.8,5.3-10
		L90.1,234.3z"/>
	<path d="M459.9,172.4l-47.5-14.5l-26.1,81.8l-3.8-1.2c-4.2-1.4-8.5-2.7-12.7-3.9l-1.6,5.4c-1.3,4.2,1.1,8.7,5.3,10l57.6,17.5
		l-9.4-56.9L459.9,172.4z"/>
	<path d="M302.9,98.2c-0.9,1-2.7,4.1-2.7,4.1s2.3-2.7,3.2-3.1s2-0.1,2.3-0.4c0.3-0.3,1.3-2,2.3-5.1c0,0-2.4,3.3-2.8,3.9
		S303.9,97.2,302.9,98.2z"/>
	<polygon points="100,58.2 106.7,64.2 106,65.4 107.4,66.7 111.4,62.2 110,61 108.9,61.8 102.1,55.8 102.9,54.5 101.5,53.3 
		97.4,57.7 98.9,59 	"/>
	<polygon points="106.9,50.6 113.1,57.2 112.3,58.4 113.6,59.7 118,55.6 116.7,54.3 115.2,55.3 110.9,50.7 111,50.7 120.7,53.1 
		123,50.9 115.4,42.7 116.2,41.6 114.9,40.2 113.9,41.1 110.5,44.3 111.8,45.7 113.3,44.7 117.6,49.3 117.6,49.4 107.8,46.8 
		105.4,49 104.4,50 105.7,51.4 	"/>
	<polygon points="122.4,39.2 121.6,38 123.3,36.8 128.5,43.7 127.6,44.8 128.7,46.3 133.5,42.7 132.4,41.2 131.1,41.8 125.9,34.8 
		127.5,33.6 128.4,34.7 130.4,33.2 128,30.1 118.1,37.6 120.5,40.7 	"/>
	<polygon points="133.9,28.8 138.6,36.5 137.6,37.5 138.6,39.1 147.8,33.4 145.8,30 143.7,31.3 144.4,32.6 141.2,34.5 139.6,31.8 
		143.2,29.6 141.9,27.5 138.2,29.7 136.8,27.4 139.9,25.5 140.6,26.6 142.7,25.4 140.7,22.1 131.6,27.7 132.6,29.3 	"/>
	<path d="M147.4,20.9l3.9,8.1l-1.1,0.9l0.8,1.7l5.4-2.6l-0.8-1.7l-1.4,0.3l-1.2-2.4l2-0.9l3.6,3.6l3.5-1.7l-0.8-1.7l-1.3,0.3
		l-2.8-2.5c0.4-0.6,0.6-1.2,0.7-1.9c0.1-0.8,0-1.5-0.4-2.2c-0.4-0.8-0.9-1.3-1.5-1.7c-0.7-0.4-1.4-0.5-2.2-0.5
		c-0.8,0-1.7,0.3-2.7,0.8l-5.9,2.9l0.8,1.7L147.4,20.9z M152.2,18.9c0.6-0.3,1.1-0.3,1.6-0.2c0.5,0.2,0.8,0.5,1.1,1
		c0.2,0.5,0.3,0.9,0.1,1.3c-0.2,0.4-0.5,0.8-1.1,1L152,23l-1.6-3.2L152.2,18.9z"/>
	<polygon points="162.6,13.9 165.6,22.4 164.4,23.1 165.1,24.9 170.7,22.9 170.1,21.1 168.3,21.4 166.2,15.6 166.3,15.6 174.3,21.6 
		177.3,20.5 173.5,10 174.7,9.3 174.1,7.5 172.7,7.9 168.4,9.5 169,11.3 170.8,11 172.9,17 172.9,17 165,10.7 161.9,11.8 
		160.6,12.3 161.2,14.1 	"/>
	<path d="M184.8,18.5l-0.5-1.8l-0.9,0l0-1.5l4.2-1l0.7,1.3l-0.8,0.4l0.5,1.8l4.8-1.2l-0.5-1.8l-1,0.1l-6.6-10.1l-3.4,0.8l-1.1,12
		l-0.9,0.4l0.4,1.8L184.8,18.5z M183.9,8.6l0-0.5l0.1,0l0.2,0.4l2.2,3.6l-2.8,0.7L183.9,8.6z"/>
	<polygon points="195.9,6.4 195.8,5 197.8,4.7 199.1,13.3 197.7,13.8 198,15.6 204,14.8 203.7,12.9 202.3,12.8 201,4.2 203.1,3.9 
		203.4,5.3 205.8,5 205.2,1.1 192.9,2.9 193.5,6.8 	"/>
	<polygon points="210.8,2.8 211.4,11.8 210.1,12.2 210.2,14.1 216.2,13.7 216.1,11.8 214.7,11.6 214.1,2.6 215.4,2.2 215.3,0.3 
		209.3,0.7 209.4,2.6 	"/>
	<path d="M221.5,11.8c0.5,0.6,1.2,1.1,2,1.5s1.6,0.5,2.5,0.5c0.9,0,1.7-0.1,2.5-0.5c0.8-0.3,1.5-0.8,2.1-1.4
		c0.6-0.6,1.1-1.3,1.4-2.1c0.3-0.8,0.5-1.7,0.5-2.7V6.9c0-1-0.1-1.9-0.5-2.7c-0.3-0.8-0.8-1.5-1.3-2.2c-0.6-0.6-1.2-1.1-2-1.5
		C228,0.2,227.1,0,226.2,0c-0.9,0-1.8,0.1-2.6,0.5c-0.8,0.3-1.5,0.8-2,1.4c-0.6,0.6-1,1.3-1.3,2.1c-0.3,0.8-0.5,1.7-0.5,2.7v0.2
		c0,1,0.1,1.9,0.4,2.7C220.5,10.4,220.9,11.1,221.5,11.8z M223,6.7c0-0.9,0.1-1.6,0.4-2.3c0.2-0.6,0.6-1.1,1-1.5
		c0.5-0.3,1-0.5,1.8-0.5c0.7,0,1.2,0.2,1.7,0.6c0.5,0.4,0.8,0.9,1.1,1.5c0.2,0.6,0.4,1.4,0.3,2.2V7c0,0.9-0.1,1.6-0.4,2.3
		c-0.3,0.6-0.6,1.1-1.1,1.5c-0.5,0.4-1.1,0.5-1.7,0.5c-0.7,0-1.3-0.2-1.8-0.6c-0.5-0.4-0.8-0.9-1-1.5c-0.2-0.7-0.3-1.4-0.3-2.3V6.7z
		"/>
	<polygon points="242,12.7 240.3,12.2 241,6.1 241.1,6.1 245.5,15.1 248.6,15.5 250,4.4 251.4,4.3 251.7,2.4 250.3,2.2 245.7,1.6 
		245.5,3.5 247.2,4 246.4,10.3 246.3,10.3 242.1,1.2 238.8,0.8 237.5,0.6 237.2,2.5 238.5,2.9 237.4,11.9 236,12 235.8,13.9 
		241.7,14.6 	"/>
	<path d="M256.3,17l0.4-1.8l-0.8-0.3l0.7-1.3l4.2,1l0.1,1.5l-0.9,0l-0.4,1.8l4.9,1.1l0.4-1.8l-0.9-0.3l-1.4-12L259.2,4l-6.4,10.2
		l-0.9-0.1l-0.4,1.8L256.3,17z M259.9,7.8l0.3-0.5l0,0l0,0.5l0.4,4.2l-2.9-0.7L259.9,7.8z"/>
	<polygon points="278.5,19 276.2,18.2 275.5,19.9 272.5,18.9 275.3,10.7 277,10.9 277.6,9.1 276,8.6 272.9,7.6 271.6,7.1 271,8.9 
		272.2,9.6 269.4,18.2 268,18 267.4,19.8 277.2,23.1 	"/>
	<path d="M289.5,28.3c0.7,0.6,1.5,1.1,2.5,1.6c0.9,0.5,1.8,0.7,2.6,0.8c0.8,0.1,1.5,0,2.2-0.3c0.6-0.3,1.1-0.8,1.5-1.5
		c0.5-1,0.6-2,0.2-3c-0.4-1-1.2-2-2.4-3c-0.5-0.5-0.8-0.9-1-1.2c-0.2-0.3-0.4-0.6-0.4-0.8c0-0.2,0-0.5,0.1-0.7
		c0.1-0.3,0.3-0.5,0.5-0.5s0.5-0.1,0.8-0.1c0.3,0,0.6,0.1,1,0.3c0.4,0.2,0.7,0.4,1,0.7s0.5,0.5,0.7,0.6l-0.5,1.8l2.1,1.1l1.4-2.9
		c-0.4-0.7-0.9-1.4-1.5-2c-0.6-0.6-1.5-1.1-2.4-1.6c-0.9-0.4-1.7-0.6-2.5-0.7c-0.8,0-1.5,0.1-2.2,0.4c-0.6,0.3-1.1,0.8-1.4,1.5
		c-0.3,0.7-0.5,1.4-0.4,2c0.1,0.6,0.4,1.3,0.9,1.9c0.5,0.7,1.2,1.4,2,2.3c0.4,0.4,0.6,0.8,0.8,1c0.2,0.3,0.3,0.6,0.3,0.8
		c0,0.2,0,0.5-0.1,0.7c-0.1,0.2-0.3,0.4-0.5,0.5c-0.2,0.1-0.5,0.2-0.8,0.1c-0.3,0-0.6-0.1-1-0.3c-0.5-0.3-1-0.6-1.4-0.9
		c-0.4-0.3-0.6-0.7-0.7-1l0.6-1.7l-2.2-1.1l-1.5,3.1C288.3,27,288.9,27.7,289.5,28.3z"/>
	<polygon points="305.6,37.3 311.4,32.9 312.2,32.2 312.2,32.2 312,33.2 310.1,40.2 312.5,41.8 321.4,34.1 322.7,34.8 323.7,33.2 
		318.8,30 317.8,31.5 318.9,32.6 314.1,37 313.7,37.4 313.6,37.4 313.8,36.8 316.1,28.2 314.3,27 307.6,32.3 307,32.9 306.9,32.9 
		307.2,32 309.3,26.2 310.7,26.9 311.7,25.3 306.7,22 305.6,23.5 306.8,24.5 303.1,35.7 	"/>
	<polygon points="321,45.6 319.7,45 318.5,46.5 323.2,50.3 324.4,48.8 323.5,47.7 329.2,40.7 330.4,41.4 331.7,39.9 327,36.1 
		325.8,37.6 326.7,38.7 	"/>
	<path d="M333.5,52.4c0.2,0.5,0.4,0.9,0.5,1.2c0.1,0.3,0.1,0.6,0.1,0.9c-0.1,0.2-0.2,0.4-0.4,0.6c-0.2,0.2-0.4,0.3-0.6,0.4
		c-0.2,0-0.5,0-0.8-0.1s-0.6-0.3-0.9-0.6c-0.4-0.4-0.8-0.8-1-1.3c-0.3-0.4-0.4-0.8-0.4-1.1l1-1.5l-1.8-1.7l-2.4,2.5
		c0.2,1,0.5,1.9,1,2.6c0.5,0.7,1.1,1.5,1.9,2.2c0.7,0.7,1.5,1.2,2.2,1.5c0.8,0.3,1.5,0.4,2.2,0.3c0.7-0.1,1.3-0.4,1.9-1
		c0.8-0.8,1.1-1.8,1-2.8c-0.1-1-0.6-2.2-1.3-3.6c-0.3-0.6-0.5-1.1-0.6-1.5s-0.2-0.7-0.2-0.9c0-0.2,0.1-0.4,0.3-0.6
		c0.2-0.2,0.4-0.3,0.7-0.3c0.3,0,0.5,0,0.8,0.2c0.3,0.1,0.6,0.3,0.8,0.6c0.3,0.3,0.6,0.6,0.8,0.9c0.2,0.3,0.4,0.6,0.4,0.8l-1,1.5
		l1.7,1.7l2.2-2.3c-0.1-0.8-0.4-1.6-0.8-2.3c-0.4-0.8-1.1-1.5-1.9-2.2c-0.7-0.7-1.4-1.1-2.2-1.4c-0.8-0.3-1.5-0.4-2.2-0.3
		c-0.7,0.1-1.3,0.4-1.8,1c-0.5,0.6-0.9,1.2-1,1.8c-0.1,0.6,0,1.3,0.2,2.1C332.5,50.4,332.9,51.4,333.5,52.4z"/>
	<path d="M343.6,65.9c-0.2,0.2-0.4,0.3-0.7,0.3s-0.5,0-0.8-0.2s-0.5-0.4-0.8-0.7c-0.4-0.4-0.7-0.9-0.9-1.4c-0.2-0.5-0.3-0.9-0.3-1.2
		l1.2-1.4l-1.6-1.9l-2.6,2.3c0.1,1,0.4,1.9,0.8,2.7c0.4,0.8,1,1.6,1.7,2.4c0.7,0.8,1.4,1.3,2.1,1.7c0.7,0.4,1.4,0.6,2.1,0.5
		c0.7,0,1.3-0.3,1.9-0.8c0.9-0.8,1.3-1.7,1.3-2.7c0-1-0.3-2.3-1-3.7c-0.2-0.6-0.4-1.2-0.5-1.5c-0.1-0.4-0.1-0.7-0.1-0.9
		c0.1-0.2,0.2-0.4,0.3-0.6c0.2-0.2,0.5-0.3,0.7-0.3c0.2,0,0.5,0.1,0.8,0.2c0.3,0.2,0.5,0.4,0.8,0.7c0.3,0.3,0.5,0.7,0.7,1
		c0.2,0.4,0.3,0.6,0.4,0.9l-1.1,1.5l1.6,1.8l2.4-2.1c-0.1-0.8-0.3-1.6-0.6-2.4c-0.4-0.8-0.9-1.6-1.7-2.4c-0.6-0.7-1.3-1.2-2.1-1.6
		c-0.7-0.3-1.4-0.5-2.1-0.5c-0.7,0-1.3,0.3-1.9,0.8c-0.6,0.5-0.9,1.1-1.1,1.7c-0.2,0.6-0.1,1.3,0.1,2.1c0.2,0.8,0.5,1.8,1,2.9
		c0.2,0.5,0.3,1,0.4,1.3c0.1,0.3,0.1,0.6,0,0.9C343.9,65.5,343.8,65.7,343.6,65.9z"/>
	<polygon points="191.7,256.3 187.1,256.3 187.1,243.8 189.5,243.3 189.5,240.6 180.5,240.6 180.5,243.3 182.5,243.8 182.5,256.7 
		180.5,257.1 180.5,259.8 195.3,259.8 195.3,253.6 191.8,253.6 	"/>
	<path d="M212,240.6h-5l-5.7,16.3l-1.3,0.2v2.7h7.2v-2.7l-1.2-0.2l0.5-2.1h6.2l0.6,2.1l-1.3,0.2v2.7h7.2v-2.7l-1.3-0.2L212,240.6z
		 M207.4,251.6l1.8-5.8l0.2-0.7h0.1l0.2,0.7l1.9,5.8H207.4z"/>
	<path d="M235.8,240.6h-5l-5.7,16.3l-1.3,0.2v2.7h7.2v-2.7l-1.2-0.2l0.5-2.1h6.2l0.6,2.1l-1.2,0.2v2.7h7.2v-2.7l-1.3-0.2
		L235.8,240.6z M231.2,251.6l1.8-5.8l0.2-0.7h0.1l0.2,0.7l1.9,5.8H231.2z"/>
	<polygon points="259.8,249.9 264.5,243.7 266.2,243.3 266.2,240.6 258.1,240.6 258.1,243.3 259.8,243.5 257,247.3 254.3,243.5 
		256.1,243.3 256.1,240.6 247.8,240.6 247.8,243.3 249.3,243.7 254.2,250.5 249.1,256.8 247.4,257.1 247.4,259.8 255.5,259.8 
		255.5,257.1 254,257 257.1,252.9 260,257 258.5,257.1 258.5,259.8 267,259.8 267,257.1 265.1,256.8 	"/>
	<path d="M229.4,210.4L229.4,210.4c48,0,95.5,6.8,141.5,20.3c4.3,1.2,8.5,2.6,12.8,3.9l20.8-65.2l4-12.6l4.7-14.8
		c-17.9-5.8-36.9-10.9-56.4-15.2c-1.1-1.5-2.1-3.1-3-4.8c-5.1-9.2-7.4-19.8-7.4-19.9c-0.1-0.4-0.3-0.7-0.7-0.8
		c-6.2-2.5-13.3-5.9-14-6.8c-0.3-0.5-0.5-1.1-0.7-1.7c-0.4-1.3-0.8-2.7-2.4-3.7c-0.6-0.3-1-0.8-1.3-1.3c-0.6-0.7-1.6-2-3.3-0.9
		c-0.8,0.5-3.9,1.2-5.2,0.7c-0.1,0-0.2-0.1-0.3-0.2c-0.6-2.4-1.5-3.5-3.5-4.4c-1.2-0.5-1.6-1.1-1.6-1.1c-0.3-0.4-0.9-0.6-1.4-0.4
		c-0.5,0.2-0.7,0.7-0.7,1.2c0,0.1-0.3,0.5-1.1,1c-1.3,0.6-2.3,1.5-3,2c-0.5-0.3-1.3-0.5-2.1-0.5c0-0.1,0-0.2-0.1-0.2
		c-0.2-0.5-0.5-1.5-1.5-1.6c-0.6-0.1-1.1,0.1-1.5,0.2c-0.1,0-0.2,0.1-0.3,0.1c-0.1-0.2-0.3-0.4-0.5-0.6c-1.2-1.5-2-2.5-2.9-2.7
		c-0.1,0-0.1,0-0.1-0.1c-0.6-0.4-1-0.3-1.8-0.1l-0.4,0.1c-0.9,0.2-1.7,0.1-2.6-0.1c-0.4-0.1-0.8-0.1-1.1-0.2c-0.7-0.1-1.4,0.1-2,0.2
		c-0.4,0.1-1,0.2-1.1,0.2c-0.1-0.2-0.2-0.3-0.4-0.5c-0.5-0.7-1.2-1.6-2.2-1.7c-0.4-0.1-1,0-1.7,0.5c-0.8,0.7-1.3,1.5-1.6,2.1
		c-0.1,0.2-0.3,0.5-0.3,0.6c-0.5,0.3-2.4,1.3-2.9,1.7c-0.5,0.1-1.8,0.2-3,0.3l-0.2,0c-2.1,0.2-4.5,0.3-4.7,2.1
		c-0.1,0.6-1.6,3.3-2.1,3.7c-0.3,0.1-1.6,0.1-2.7-0.2c-1.5-0.4-3.5,0.4-4.5,1.8c-0.5,0.4-3.1,0.4-3.7,0.2c-0.2-0.1-0.9-0.7-2-2.3
		c-0.3-0.4-1-1.5-1.8-2.6c-1.1-1.8-2.3-3.6-2.9-4.4c-0.5-0.6-1.4-1.2-2.9-2.2c-1.5-1-3.7-2.5-4.1-3.3c-0.5-1.5-2.7-3.2-6-5.8
		c-1.3-1-2.6-2-3-2.5c-0.5-0.6-1.1-1.1-1.6-1.7c-1-1-2-2-2.5-3c-0.6-1.3-1.8-2-2.8-2.7c-0.7-0.4-1.4-0.9-1.7-1.4
		c-0.8-1.2-2.3-2-3.6-2.6c-0.7-0.3-1.6-0.8-1.8-1.1c-1-1.3-1.9-2-4.3-2.6l-0.5-0.1c-1.9-0.4-2.8-0.7-3.3-1.7
		c-1.3-2.8-7.6-2.3-7.7-2.3c-0.1,0-0.3,0-0.6,0c-2.2,0.2-5.5,0.5-5.9,2.5c-0.1,0.5-0.4,1-0.7,1.5c-0.5,0.8-1,1.7-0.7,2.6
		c0.1,0.3,0.2,0.6,0.5,1c0.2,0.4,0.7,1.2,0.7,1.7c-0.9,0.7-2.6,2.5-3.3,6.4c-0.3,1.8-1,2.3-1.9,2.9c-0.5,0.3-1,0.7-1.5,1.3
		c-0.4,0.6-1.3,1.3-2.1,1.9c-0.9,0.7-1.5,1.2-1.8,1.7c0,0-0.1-0.1-0.1-0.1c-0.6-0.8-1.4-1.3-2-1.6l0,0l0,0h0c-0.1,0-0.2-0.1-0.3-0.2
		c-0.3-0.1-0.7-0.3-0.7-0.4c-0.2-0.3-0.9-1.5-1.8-2.8c-1.4-2.2-3.2-4.9-3.5-5.3c-0.2-0.4-0.8-1.3-1.8-1.4c-0.4,0-1.1,0-1.6,0.8
		c-0.9,1.2-1.8,3-2.2,4.3c-0.1,0.3-0.2,0.7-0.3,1.2c-0.3,1.2-1.3,4.9-1.8,5.6c-1.6,0.8-2.7,0.9-2.9,0.8c-0.7-1.8-2.3-3.6-4-3.6
		c-0.5,0-1.1,0.1-1.8,0.3c-0.1,0-0.2,0-0.3,0c-0.3,0.1-0.6,0.1-0.8,0.1c-0.2-0.4-0.4-0.9-0.5-1.3c-0.3-0.8-0.6-1.6-0.9-2
		c-0.2-0.4-0.8-0.8-1.6-1.5l0,0c0,0,0,0,0,0c-0.3-0.2-0.6-0.5-1-0.8c-0.8-0.6-1.9-1.5-2.1-1.8c-0.2-0.2-0.4-0.5-0.6-0.8
		c-0.4-0.5-0.8-1-0.9-1.4c-0.3-1-1.1-1.7-2-1.8c-0.4,0-1.4,0-2.1,1.3c-0.1,0.2-0.2,0.5-0.3,0.7c-0.3,0.7-1,2.1-1.3,2.3
		c-0.8,0.3-2.1,1.3-2.1,3.7c-0.2,0.8-2.8,3-3.7,3.4c-0.1,0-0.2,0-0.3,0.1c-0.7,0.3-17.4,8.2-23.4,20.9c-6,12.6-7.4,13.4-10.2,14.9
		c-0.4,0.2-1,0.5-1.7,0.9c-5.2,2.7-14.9,7.6-15.8,13.4c-0.2,1.3-0.2,2.3-0.3,3.1c0,0.5,0,0.9-0.1,1.4c-0.2,1.2-0.9,2.4-3.3,4.9
		c0,0,0,0,0,0c-15.1,3.6-29.9,7.8-44,12.3l4.9,15.2l4,12.4c0,0,0,0,0,0l21.2,65.1c4.5-1.5,9.1-2.9,13.7-4.2
		c36-10.5,73-16.9,110.4-19.1c0.2,0,0.5,0,0.7,0c1.8-0.1,3.7-0.2,5.5-0.3c1.4-0.1,2.9-0.1,4.3-0.2c0.6,0,1.3,0,1.9,0
		c2.6-0.1,5.3-0.2,7.9-0.2c0.4,0,0.9,0,1.3,0C223.8,210.5,226.6,210.4,229.4,210.4z M185.9,72.6c0.6,0.3,1.1,0.5,1.5,1
		c0.8,1,1.6,1.5,2.4,1.4c0.6-0.1,1-0.5,1.4-1c1.6,1,3.7,3,4.7,6.2c1.8,5.5,1.4,4-1.8,0.2c-3.2-3.8-0.7-0.2-1.4,2.1
		c-0.8,2.3-0.2,3.5,1.1,15.2c1.4,11.7-2.5-3.5-4.1-12.2c-1.6-8.7-4.5-7.4-6.6-11.7c-1.7-3.6-3.7-8.7-4.2-10.3c0-0.1,0.1-0.2,0.1-0.2
		c1.3,2,4.7,7.3,5.1,8C184.6,72,185.3,72.3,185.9,72.6z M202.6,51.9c0.3-0.2,1.2-0.5,3.8-0.8c0.2,0,0.5,0,0.6-0.1
		c0.8-0.1,1.9,0,2.9,0.1c0.2,0.2,0.5,0.4,0.8,0.7c1.8,1.8-3.3,10.7-2.2,15.5c1,4.8,2.9,0.5,2.8-3.9c-0.1-4.4,2.2-2.9,2.2-2.9
		s6.3,5.5,7.2,7.5c0.9,2,2.6,1.1,2.6-1.9c0-3,1-0.5,3,2.9c2,3.4,3.8,5.3,3.8,5.3c1.8,4.9-1.3,11.4,0,20.9c0.5,3.7,1.2,6.2,1.7,7.4
		c-0.4-0.9-1.2-2.5-2.6-4.8c-3.8-6.4,0.6-13.9-1.7-19.3c-0.4-1-0.4,2.6-2.1,2.4c-1.8-0.3-0.2-7.3-1.4-8.3c-18-15.5-8.1,2.7-7.3,6.1
		c0.9,3.4,6,2.8,0.2,2.7c-5.8-0.1-3.1-0.3-4.9-3.2c-1.8-2.9-4.1-2.8,0.4,10.4c4.5,13.2,1.4,5.8-4.9-3.3c-6.3-9-5.8-10.3-5.5-16.2
		c0.2-4.2-0.4-7.2-0.4-9.3c0,0,0.1-0.1,0.1-0.1c1-0.7,0.9-1.8,0.6-2.8c0.1-0.9-0.7-1.6-0.8-2.5v0c0.1-0.2,0.2-0.3,0.3-0.5
		C202,53.4,202.4,52.7,202.6,51.9z M217.2,55l0.5,0.1c2,0.5,2.4,0.9,3,1.7c0.5,0.7,1.5,1.2,2.6,1.7c1,0.5,2.2,1.1,2.6,1.7
		c0.6,1,1.6,1.6,2.5,2.1c0.9,0.5,1.6,1,1.9,1.7c0.7,1.4,1.9,2.6,3,3.7c0.5,0.5,1.1,1,1.5,1.5c0.5,0.6,1.6,1.5,3.4,2.9
		c0,0,0.1,0.1,0.1,0.1l6.4,12c-4.8-3.2-7.6-7.4-10.1-10.8c-2.6-3.4-7.9-10.1-8.5-10.7c-0.7-0.7-7.3-5.7-7.3-5.7s2.2,5.9,2.5,8.8
		l-4.4-8.1l-2.1-3.5C215.5,54.6,216.3,54.8,217.2,55z M251.7,84.5L251.7,84.5c0.6,0.8,1.2,1.9,1.8,2.8c0.8,1.2,1.5,2.3,1.8,2.8
		c2,2.6,2.7,2.9,3,3c0.3,0.1,1.4,0.3,2.5,0.3c3,1.7,6.7,3.6,7.6,4.3c-4.6-1.2-12.5-5.2-13.1-5.9c-0.5-0.7-4.4-6.8-7.2-9.8
		C249.6,82.8,250.7,83.6,251.7,84.5C251.7,84.5,251.7,84.5,251.7,84.5z M290.9,82.4c0.5-0.1,0.9-0.2,1.2-0.2c0.3,0,0.6,0.1,1,0.2
		c0.6,0.1,1.2,0.2,1.9,0.2c-2.5,1.2-4.1,1.7-5.4,1.6c-1.8-0.1-4.2,3.7-6.6,5.6c-2.5,1.8,4.3,0.4,5.6,4.1c1.3,3.6-0.2,10.4-1.4,15.5
		c-0.1,0.6-0.3,1.1-0.4,1.6c-0.5,1.6-1,3-1.5,3.9c-0.3,0-0.6-0.1-0.9-0.1c0.2-1.1,0.7-2.5,1-3.9c0.5-2,1-4.1,1-5.7
		c0-2.8-2-10.9-2.6-7.2c-0.6,3.7-2.8,7.8-2.8,7.8l0.4-11.8l3.3-1c0,0-4.4-0.8-5.6,1c-1.2,1.8-1.8-0.7-2.1,3.7
		c-0.4,4.4-5.4,7-3.7,3.5c1.7-3.5-1-5.4,0.5-9c1.5-3.6,3.3-4,6.4-5.4c3.1-1.4,4.1-2.7,6.8-3.7c0.5-0.2,1-0.4,1.3-0.6
		C289.2,82.8,290.1,82.6,290.9,82.4z M306.6,88c0,0,0.1,0,0.1,0.1c-0.2,0.5-0.4,1-0.6,1.3c0.2-0.4,0.5-0.8,0.9-1.2
		c0.4,0.1,0.9,0,1.2-0.3c0,0,1.2-1.2,3-2.2c0.8-0.4,1.3-0.8,1.7-1.3c0.1,0.1,0.3,0.2,0.4,0.3c0,0,0,0.1,0,0.1
		c-0.1,0.4-0.4,1-0.7,1.3c-0.5,0.5-1,1.1-1.1,2c-0.1,0.8-1.1,2.4-1.1,2.6c0.1-0.1,1.4-1.3,1.8-2.2c0.5-1,1.6-2.3,2-2
		c0.2,0.1,0.7,0.5,1.3,0.9c0.2,0.1,0.4,0.3,0.7,0.4c0,0,0,0,0,0c0.1,0.6,0.5,1.4,1.7,1.8c1.6,0.6,4,0.3,5.7-0.2
		c0.7,0.3,1.8,0.9,1.8,1.7c0.1,1.2,2.6,5.8,4.1,6.8c1.3,0.9,2.7,2.7,3.3,4.3c0.7,1.6,9.4,5.2,10,5.5l-8.9-2.1c0,0,5.1,7.7,4.8,8.3
		c-0.3,0.5,1.3,3.5,2.9,5c0.1,0.1,0.3,0.3,0.4,0.5c0.5,0.9,1,2.5,1.4,4.4c-0.5-0.1-1-0.2-1.6-0.3c0-0.5-0.1-1-0.3-1.2
		c-1-1.3-2.6-2.5-2.6-3.4c0,0,0,0,0-0.1c-0.1-1-2.6-4.3-2.5-5.4c0.1-1.1-3.7-5.1-3.8-6.5c-0.1-1.4-1.6-4.4-4.2-7
		c-0.4,1.9,0.1,10.7,0.1,10.7s-2.1-6.6-2.2-11c-3.5-4.9-4.7-4.8-6-6.5s-2.5-2-3.7-2.8c-1.2-0.8-2.3-1.3-3.2-1
		c-0.9,0.3-1.8,1.4-1.7,2.6c0.1,1.2-1.4,5.1-1.5,5.4c0.1-0.2,1.4-1.9,1.8-2.7c0.5-0.9,0.8-0.3,1.2,0.2s1.4,1.3,1.8,1.3
		c0.4,0,1.4-2.7,1.8-2.7s0,2.7-0.5,3.5c-0.5,0.8-1.3,1.9-1.2,2.7c0.1,0.8-1,4.2-1,4.2s1.7-2.4,2.2-3.8c0,0,0.9,1.3,1.1,1.3
		c0.3,0,2.1-3.4,2.1-3.4s-0.1,2.6-0.2,3.4c-0.1,0.8-0.9,1.2-1,1.5c-0.1,0.2,0.3,1.9-0.1,2.8c-0.4,0.8-1.5,3.3-1.5,3.3l-0.6-4.3
		c0,0-3.8-0.1-4.4,0.5c-0.6,0.6,0.1,2-0.6,3.4l-1.9,3.3c0,0-0.8,0.8-2,1.7c-1.9,1.6-4.7,3.7-5.7,3.1c-0.4-0.3,3.7-2.8,3.7-3.1
		c0-0.1,0.1-0.2,0.1-0.3c0.9-2.1,4.2-3.9,3.5-5.8c-0.7-1.8-5.2,1.4-5.2,1.4l6.1-9l-8.6,5.8l0.7-2.8l-5.8,9.2l-0.4,0.6l0.2-0.7l1-4.1
		l4-9.7c-0.2,0.4-4,7-7.6,13.4c-0.7,1.3-1.5,2.6-2.2,3.8c-0.6-0.1-1.2-0.2-1.8-0.2l1.5-3.9l4.5-11.6c2.4-2.7,3.6-7.2,3.6-7.2l5-5
		c0,0.2,0,5.5-1.5,8c2.8-3.2,2.3-5.2,2.3-6.1c0-0.4,0.6-1.2,1.2-1.9c0,0,0,0,0,0C306.2,87.7,306.5,87.9,306.6,88z M312.9,189.5
		c-0.3,1.4-1,2.3-2,2.8c-1,0.5-2.4,0.6-4,0.3c-1.1-0.2-2.2-0.5-3.4-0.7c-0.4,1.8-0.8,3.6-1.1,5.5c-0.6-0.1-1.2-0.3-1.9-0.4
		c0.9-4.7,1.9-9.3,2.8-14c1.8,0.4,3.6,0.7,5.4,1.1c1.6,0.4,2.8,1,3.5,2C312.9,187.1,313.2,188.3,312.9,189.5z M304.9,146.7
		c-0.1,0-0.1,0-0.1,0l0,0.2c-0.6,4.6-1.2,9.3-1.9,13.9c1.3,0.4,2.7,0.8,4,1.2c-0.1,0.6-0.2,1.2-0.3,1.8c-0.1,0.8-0.2,1.6-0.3,2.4
		c-4.6-0.7-9.2-1.2-13.8-1.8c0-0.2,0-0.4,0.1-0.7c0.1-1.2,0.3-2.4,0.4-3.6c1.1-0.1,2.2-0.2,3.3-0.3c0.6-4.6,1.1-9.3,1.7-13.9
		c0.3-2.2,0.5-4.4,0.8-6.6c-0.4-0.1-0.8-0.3-1.2-0.4c-0.1,0-0.3-0.1-0.4-0.1c-0.5-0.2-1.1-0.3-1.6-0.5c0.2-1.4,0.3-2.9,0.5-4.3
		c3.8,0.4,7.6,0.9,11.3,1.4c0.6,1.2,1.1,2.4,1.7,3.6c1.5,3,2.9,6.1,4.3,9.1c1.3,2.9,2.6,5.8,3.9,8.7c0,0,0.1,0,0.1,0
		c0.4-2.6,0.8-5.3,1.3-7.9c0.3-2.2,0.7-4.4,1-6.6c-1.4-0.5-2.7-0.9-4.1-1.3c0.1-0.7,0.2-1.4,0.3-2c0.1-0.8,0.2-1.5,0.3-2.3
		c4.6,0.7,9.2,1.5,13.8,2.3c0.2,0,0.5,0.1,0.8,0.1c-0.2,1.4-0.5,2.8-0.8,4.3c-0.6,0-1.1,0-1.6,0c-0.6,0-1.2,0-1.8,0
		c-0.4,2.2-0.8,4.4-1.1,6.5c-0.8,4.6-1.6,9.2-2.4,13.8c-0.3,1.6-0.6,3.3-0.9,4.9c-2.4-0.4-4.9-0.8-7.3-1.2c-0.6-1.2-1.1-2.5-1.7-3.7
		c-2.6-5.7-5.3-11.3-8.2-16.9C305,146.9,305,146.8,304.9,146.7z M277.5,186.5c-0.3,2.2-0.6,4.3-0.9,6.5c-0.6-0.1-1.2-0.2-1.9-0.2
		c0.6-4.7,1.2-9.4,1.8-14.1c0.7,0.1,1.3,0.2,2,0.3c-0.3,2-0.5,4-0.8,6.1c2.4,0.3,4.9,0.7,7.3,1c0.3-2,0.6-4,0.9-6
		c0.7,0.1,1.3,0.2,2,0.3c-0.7,4.7-1.5,9.4-2.2,14c-0.6-0.1-1.3-0.2-1.9-0.3c0.3-2.2,0.7-4.3,1-6.5
		C282.4,187.2,280,186.8,277.5,186.5z M267.9,179.7c-0.5-0.5-1.3-0.9-2.3-1c-1-0.1-1.7,0-2.3,0.4c-0.6,0.4-0.9,0.9-1,1.6
		c0,0.6,0.2,1.1,0.6,1.5c0.5,0.4,1.3,0.9,2.5,1.3c1.2,0.5,2.1,0.9,2.7,1.4c0.6,0.5,1.1,1,1.4,1.6c0.3,0.6,0.4,1.2,0.3,1.9
		c-0.1,1.2-0.7,2-1.7,2.6c-1,0.6-2.2,0.8-3.7,0.7c-1-0.1-1.9-0.4-2.7-0.8s-1.4-1-1.8-1.7c-0.4-0.7-0.6-1.4-0.5-2.3
		c0.6,0,1.3,0.1,1.9,0.2c-0.1,0.9,0.2,1.6,0.8,2.1c0.6,0.6,1.4,0.9,2.5,1c1,0.1,1.8,0,2.4-0.4c0.6-0.3,0.9-0.9,1-1.6
		c0.1-0.7-0.1-1.3-0.6-1.7c-0.5-0.4-1.3-0.9-2.6-1.4c-1.6-0.6-2.8-1.3-3.5-2c-0.7-0.7-1-1.6-0.9-2.6c0.1-1.1,0.6-2,1.6-2.7
		c1-0.6,2.3-0.9,3.8-0.8c1,0.1,1.9,0.4,2.7,0.8c0.8,0.5,1.3,1,1.7,1.8c0.4,0.7,0.5,1.5,0.4,2.2c-0.6-0.1-1.3-0.2-2-0.2
		C268.6,181,268.4,180.3,267.9,179.7z M254.4,176.5c-0.3,4.7-0.7,9.5-1,14.2c-0.6,0-1.3-0.1-1.9-0.1c-2.2-3.8-4.4-7.6-6.7-11.3
		c-0.2,3.7-0.3,7.3-0.5,11c-0.6,0-1.3,0-1.9-0.1c0.2-4.7,0.4-9.5,0.5-14.2c0.7,0,1.3,0.1,2,0.1c2.4,3.8,4.6,7.6,6.8,11.4
		c0.2-3.7,0.5-7.3,0.7-11C253.1,176.4,253.8,176.4,254.4,176.5z M236.7,182.3c0,0.3,0,0.6,0,0.9c0,1.4-0.3,2.6-0.8,3.6
		c-0.5,1-1.2,1.8-2.1,2.3c-0.9,0.5-1.9,0.8-3,0.8c-1.1,0-2.1-0.3-3-0.8s-1.6-1.3-2.1-2.4c-0.5-1-0.8-2.2-0.8-3.5c0-0.3,0-0.7,0-1
		c0-1.4,0.2-2.6,0.7-3.6c0.5-1.1,1.2-1.9,2.1-2.4c0.9-0.6,2-0.8,3.1-0.8c1.2,0,2.2,0.3,3.1,0.9c0.9,0.6,1.6,1.4,2.1,2.4
		C236.5,179.7,236.8,180.9,236.7,182.3z M219,189.9c-0.6,0-1.3,0-1.9,0l-0.4-14.2c0.7,0,1.3,0,2-0.1
		C218.8,180.4,218.9,185.2,219,189.9z M203.1,190.6c-0.6,0-1.3,0.1-1.9,0.1c-0.3-4.7-0.7-9.5-1-14.2c1.8-0.1,3.7-0.3,5.5-0.4
		c1.6-0.1,2.9,0.2,3.9,1c1,0.8,1.5,1.8,1.5,3.1c0.1,1.4-0.3,2.5-1.2,3.2c-0.8,0.8-2.1,1.2-3.8,1.3c-1.1,0.1-2.3,0.1-3.4,0.2
		C202.9,186.9,203,188.8,203.1,190.6z M175.7,193.5c-0.6,0.1-1.3,0.2-1.9,0.3c-0.3-0.5-0.6-1-0.9-1.6c-0.4-0.6-0.7-1.3-1.1-1.9
		c-2,0.3-4,0.6-6,1c0,0.2-0.1,0.4-0.1,0.7c-0.2,1.1-0.4,2.2-0.6,3.2c-0.6,0.1-1.3,0.2-1.9,0.3c0.2-1.2,0.5-2.5,0.7-3.7
		c0.8-3.8,1.5-7.5,2.4-11.3c0.6-0.1,1.1-0.2,1.7-0.3c2.4,4,4.7,8,7,12C175.2,192.7,175.5,193.1,175.7,193.5z M158.1,196.5
		c-0.6,0.1-1.2,0.2-1.9,0.4c-0.4-1.8-0.7-3.6-1.1-5.4c-0.1-0.4-0.2-0.7-0.2-1.1c-1.5,0.3-2.9,0.6-4.4,0.9h0c-1,0.2-1.9,0.4-2.8,0.6
		c0.5,2.1,0.9,4.3,1.4,6.4c-0.6,0.1-1.2,0.3-1.9,0.4c-0.6-2.6-1.1-5.1-1.7-7.7c-0.5-2.1-0.9-4.2-1.4-6.2c0.6-0.2,1.3-0.3,1.9-0.4
		l1.3,6c2.4-0.5,4.8-1,7.3-1.5c-0.4-2-0.8-4-1.2-6c0.7-0.1,1.3-0.3,2-0.4c0.6,3,1.2,6,1.8,9.1C157.4,193.2,157.7,194.9,158.1,196.5z
		 M132.9,163.9c-2.1-2-4.3-4-6.5-6c-1.1,1.6-2.3,3.2-3.4,4.7c0.1,0.4,0.2,0.8,0.2,1.3c0.1,0.8,0.3,1.5,0.4,2.2c1,0,2,0.1,3,0.1
		c0.3,1.4,0.5,2.8,0.8,4.2c-4.5,0.9-9,1.8-13.4,2.7c-0.3-1.4-0.6-2.8-0.9-4.2c0.2-0.1,0.3-0.1,0.5-0.2c0.9-0.4,1.7-0.7,2.5-1.1
		c-0.3-1.2-0.5-2.5-0.8-3.7c-0.7-3.4-1.4-6.7-2.1-10h0c-0.4-2.2-0.9-4.3-1.3-6.5c-1,0-2,0-3,0c-0.1,0-0.3,0-0.4,0
		c-0.3-1.4-0.6-2.8-0.9-4.3c4.7-1,9.4-2,14.2-2.9c0.3,1.4,0.5,2.8,0.8,4.3c-1,0.4-1.9,0.8-2.9,1.2c0.4,2.2,0.9,4.3,1.3,6.5
		c0.2,0.8,0.3,1.6,0.5,2.4c0.7-1,1.4-1.9,2.1-2.9c2-2.8,4.1-5.5,6.1-8.3c0,0,0,0,0,0c-1.2,0.1-2.5,0.3-3.7,0.4
		c-0.3-1.4-0.5-2.9-0.8-4.3c1.2-0.2,2.3-0.4,3.4-0.6c3.9-0.7,7.8-1.3,11.7-1.9c0.1,0.7,0.2,1.3,0.3,1.9c0.1,0.8,0.2,1.6,0.4,2.4
		c-0.2,0.1-0.4,0.1-0.6,0.2c-0.8,0.3-1.6,0.6-2.3,0.9c-1.1,1.4-2.2,2.9-3.3,4.3c-0.9,1.2-1.8,2.4-2.7,3.5c-0.5,0.6-1,1.3-1.4,1.9
		c2,1.8,4,3.6,5.9,5.4c1.9,1.8,3.8,3.6,5.7,5.3c0.5,0,1,0,1.5,0c0.6,0,1.2,0,1.7,0c0,0.3,0.1,0.6,0.1,0.9c0.2,1.1,0.3,2.2,0.5,3.4
		c-4.9,0.8-9.9,1.6-14.8,2.5c-0.2-1.4-0.5-2.8-0.8-4.2c1-0.3,2-0.5,3-0.8h0C133.5,164.4,133.2,164.1,132.9,163.9z M106.9,165.1
		c0.2,0.4,0.3,0.8,0.4,1.3c0.3,1.5,0.3,2.8-0.1,4c-0.1,0.3-0.2,0.5-0.3,0.8c-0.7,1.5-1.8,2.7-3.4,3.8c-0.4,0.3-0.9,0.6-1.4,0.8
		c-1.3,0.7-2.8,1.2-4.4,1.6c-2.5,0.6-4.7,1-6.8,1c-2,0-4.2-0.3-6.4-1.1c-0.7-2.6-1.4-5.1-2.1-7.7c1.9-0.5,3.8-1,5.7-1.5
		c0.6,1.3,1.1,2.5,1.7,3.8c0.6,0.4,1.5,0.6,2.7,0.6c1.2,0.1,2.5-0.1,3.8-0.4c1-0.2,1.7-0.5,2.3-0.9c0.6-0.4,1-0.8,1.2-1.3
		c0.2-0.5,0.2-1.1,0.1-1.7c-0.1-0.6-0.4-1.1-0.8-1.5c-0.4-0.4-1-0.7-1.8-0.9c-0.8-0.2-1.8-0.5-3.1-0.6c-2.9-0.2-5.2-0.4-7.2-0.8
		c-0.6-0.1-1.2-0.3-1.8-0.5c-1.1-0.4-2.1-0.9-2.9-1.5c-0.3-0.3-0.6-0.6-0.9-0.9c-0.7-0.8-1.2-1.8-1.5-3c-0.5-1.6-0.4-3.2,0.3-4.7
		c0.7-1.5,1.8-2.8,3.4-4c1.6-1.2,3.5-2.1,5.8-2.7c0.2-0.1,0.5-0.1,0.7-0.2c1.7-0.4,3.3-0.7,4.8-0.8c0,0,0,0,0,0c0.5,0,1,0,1.5,0
		c2,0.1,3.8,0.4,5.4,1c0.2,0,0.3,0.1,0.5,0.2c0.5,2.4,1.1,4.8,1.6,7.2c-1.9,0.4-3.8,0.9-5.6,1.3c-0.6-1.3-1.2-2.5-1.9-3.8
		c0,0-0.1,0-0.2,0c-0.5-0.1-1.2-0.1-2.1-0.1c-1,0-2,0.2-3,0.4c-0.9,0.2-1.6,0.5-2.3,0.9c-0.6,0.4-1.1,0.8-1.4,1.4
		c-0.3,0.5-0.3,1.1-0.2,1.8c0.1,0.5,0.4,1,0.9,1.3c0.4,0.3,1.1,0.6,2.1,0.8c0.4,0.1,0.9,0.2,1.4,0.2c0.7,0.1,1.5,0.2,2.4,0.3
		c1.4,0,2.7,0.2,3.9,0.3c0.7,0.1,1.4,0.2,2.1,0.4c0.6,0.1,1.1,0.3,1.6,0.5c0.5,0.2,1,0.4,1.4,0.6c1.4,0.7,2.5,1.7,3.2,3
		C106.6,164.2,106.7,164.7,106.9,165.1z M164.5,164.7c-4.6,0.5-9.2,1.2-13.8,1.8c-0.1-0.9-0.3-1.8-0.4-2.7c-0.1-0.5-0.2-1-0.2-1.6
		c0.5-0.2,1.1-0.4,1.6-0.6c0.5-0.2,1-0.4,1.5-0.5c-0.6-4.6-1.3-9.2-1.9-13.9c-0.3-2.2-0.6-4.4-0.9-6.6c-0.9-0.1-1.9-0.1-2.8-0.2
		c-0.2,0-0.4,0-0.6,0c-0.1-0.5-0.1-1-0.2-1.5c-0.1-0.9-0.3-1.9-0.4-2.8c4.9-0.7,9.7-1.3,14.6-1.9c0.2,1.4,0.4,2.9,0.5,4.3
		c-0.4,0.1-0.9,0.3-1.3,0.4c-0.6,0.2-1.3,0.4-1.9,0.6c0.3,2.2,0.6,4.4,0.8,6.6c0.6,4.6,1.2,9.2,1.7,13.9c1.1,0.1,2.2,0.2,3.3,0.3
		c0.1,1.1,0.3,2.3,0.4,3.4C164.4,164.2,164.5,164.5,164.5,164.7z M187.9,131.7c10.1-0.7,20.3-1.2,30.4-1.4c0.1,2.9,0.1,5.8,0.2,8.7
		c0,0.1,0,0.2,0,0.3c-2,0-4,0.1-5.9,0.1c0-0.2,0-0.3,0-0.5c-0.1-1-0.2-1.9-0.3-2.8c-1.7,0-3.4,0.1-5,0.2c0,0.9,0.1,1.8,0.1,2.7
		c0,1.1,0.1,2.2,0.1,3.3c0.2,4.6,0.4,9.3,0.5,13.9c1,0.2,2,0.3,3,0.5c0.1,0,0.2,0,0.3,0c0.1,1.4,0.1,2.9,0.2,4.3
		c-4.7,0.2-9.3,0.4-13.9,0.6c-0.1-1.4-0.2-2.9-0.2-4.3c1.1-0.3,2.1-0.6,3.2-0.9c-0.2-4.6-0.5-9.3-0.7-13.9c-0.1-1.2-0.1-2.5-0.2-3.7
		c0-0.8-0.1-1.5-0.1-2.3c-1.7,0.1-3.3,0.2-5,0.3c0,0.7,0,1.4,0,2c0,0.4,0,0.9,0,1.3c-2,0.1-3.9,0.2-5.9,0.4c0-0.6-0.1-1.1-0.1-1.7
		C188.2,136.6,188.1,134.1,187.9,131.7z M226.6,135.2c-0.6-0.1-1.1-0.2-1.7-0.3c-0.5-0.1-1.1-0.2-1.7-0.3c0-1.4,0-2.9,0-4.3
		c8.7-0.1,17.4,0,26.1,0.3c-0.1,2.8-0.2,5.7-0.3,8.5c0,0.1,0,0.2,0,0.3c-2-0.1-3.9-0.1-5.9-0.2c0-0.1,0-0.1,0-0.2c0-0.6,0-1.2,0-1.8
		c0-0.4,0-0.8,0-1.1c-2.9-0.1-5.8-0.1-8.6-0.1c0,1,0,2.1,0,3.1c0,1,0,2,0,3v0.2c3.4,0,6.8,0.1,10.2,0.2c-0.1,1.9-0.1,3.8-0.2,5.7
		c-3.4-0.1-6.8-0.2-10.1-0.2c0,2.4,0,4.9-0.1,7.3c2.9,0,5.8,0.1,8.8,0.1c0.1-1.1,0.2-2.2,0.3-3.3c1.9,0,3.8,0.1,5.7,0.2
		c-0.1,3-0.2,6-0.3,9c-8.4-0.3-16.7-0.4-25.1-0.3c0-1.4,0-2.9,0-4.3c0.1,0,0.2,0,0.3-0.1c1-0.2,2-0.4,3-0.6c0-4.6,0-9.3-0.1-13.9
		c0-1,0-2,0-2.9C226.6,137.8,226.6,136.5,226.6,135.2z M231.4,82.1l0-1.9c0,0,4.6,4.4,6.4,6c1.8,1.6,2.9,5.4,3.7,6.6
		c0.8,1.2,6.8,6.7,6.8,6.7c-3.5-2-7.7-5.3-8.2-6.4c-0.6-1-1.3-4-2.7-5.6C236.1,86,231.4,82.1,231.4,82.1z M261.6,102.6
		c1.9,0,3.1,0.6,4.5,2.3c1.5,1.7-1.1,2.8-1.5,3.4c-0.2,0.2-0.5,0.4-0.9,0.6c-0.8,0.4-1.7,0.7-1.7,0.7l0-0.9L261.6,102.6z
		 M290.7,137.8c-0.6,0.1-1.1,0.1-1.7,0.2c-0.6,0-1.2,0.1-1.7,0.1c0,0.3-0.1,0.6-0.1,0.9c-0.2,1.9-0.4,3.9-0.6,5.8
		c-0.6,6.3-1.3,12.6-1.9,18.9c-2.4-0.2-4.9-0.5-7.3-0.7c-3.6-6.7-7.3-13.3-11.2-19.9c-0.1-0.1-0.1-0.2-0.2-0.3h-0.1
		c0,0.1,0,0.2,0,0.3c-0.3,4.6-0.6,9.3-0.9,13.9c1.3,0.3,2.7,0.6,4.1,1c-0.1,1.4-0.2,2.9-0.3,4.3c-4.6-0.3-9.2-0.6-13.9-0.8
		c0.1-1.4,0.1-2.9,0.2-4.3c1.1-0.2,2.2-0.3,3.2-0.5c0.2-4.6,0.5-9.3,0.7-13.9c0.1-1.2,0.1-2.5,0.2-3.7c0-1,0.1-2,0.2-3
		c-1.1-0.3-2.2-0.6-3.3-0.8c0.1-1.5,0.1-2.9,0.2-4.3c3.8,0.2,7.6,0.4,11.4,0.6c1.5,2.5,2.9,5.1,4.3,7.6c0.9,1.6,1.8,3.1,2.6,4.7
		c1.5,2.8,3,5.5,4.5,8.3c0,0,0.1,0,0.1,0c0.2-2.6,0.5-5.3,0.7-7.9c0.1-1.7,0.3-3.4,0.5-5.1c0.1-0.5,0.1-1,0.1-1.5
		c-1.4-0.3-2.8-0.7-4.2-1c0.1-1.4,0.2-2.9,0.4-4.3c4.9,0.4,9.8,0.9,14.6,1.4C291,134.9,290.9,136.4,290.7,137.8z M183.4,152.4
		c-4.4,0.4-8.8,0.8-13.2,1.2c-0.2-1.9-0.4-3.8-0.6-5.6c4.4-0.5,8.9-0.9,13.3-1.3C183.1,148.6,183.2,150.5,183.4,152.4z M296.6,181.7
		c-0.8,4.7-1.7,9.3-2.5,14c-0.6-0.1-1.2-0.2-1.9-0.3c0.8-4.7,1.7-9.3,2.5-14C295.3,181.5,296,181.6,296.6,181.7z M330.8,166
		c1.1,0,2.2,0,3.3,0c0.1-0.7,0.3-1.4,0.4-2c0.8-3.9,1.5-7.9,2.3-11.8c0.4-2.2,0.8-4.3,1.3-6.5c-0.6-0.2-1.1-0.5-1.7-0.7
		c-0.5-0.2-1-0.4-1.5-0.6c0.3-1.4,0.5-2.8,0.8-4.3c4.8,0.9,9.6,1.9,14.4,2.9c-0.3,1.4-0.6,2.8-0.9,4.2c-1.2,0-2.3,0-3.5,0
		c-0.4,2.2-0.9,4.3-1.3,6.5c-0.7,3.4-1.4,6.8-2.1,10.3c-0.2,1.2-0.5,2.3-0.7,3.5c1,0.4,2,0.9,3.1,1.3c-0.3,1.4-0.6,2.8-0.9,4.2
		c-4.5-1-9.1-1.9-13.7-2.7C330.2,168.8,330.5,167.4,330.8,166z M378.3,160.4c-0.9-0.3-1.9-0.5-2.8-0.8v0c-0.8-0.2-1.6-0.4-2.4-0.6
		c-0.1,0-0.3-0.1-0.4-0.1c0-0.3,0-0.6,0-0.8c0.1-1.1,0.1-2.2,0.1-3.4c-0.4-0.4-1.1-0.8-1.9-1.2c0,0,0,0,0,0
		c-0.2-0.1-0.3-0.2-0.5-0.2c-0.7-0.3-1.5-0.6-2.3-0.8c-0.9-0.2-1.7-0.3-2.5-0.2c-0.7,0-1.4,0.2-1.9,0.6c-0.5,0.3-0.8,0.8-1,1.5
		c-0.1,0.5-0.1,1,0.2,1.5c0.2,0.5,0.7,1.1,1.4,1.7c0.3,0.2,0.7,0.5,1,0.8c0.6,0.4,1.3,0.9,2.1,1.5c2.3,1.3,4.1,2.7,5.5,4
		c0.6,0.6,1.1,1.2,1.6,1.8c1.4,2,1.8,4.2,1.1,6.8c-0.5,1.8-1.4,3.1-2.7,4.1c-1.3,1-2.9,1.5-4.8,1.7c-1.9,0.2-4,0-6.3-0.6
		c-2.3-0.6-4.4-1.3-6.1-2.2c-0.1,0-0.2-0.1-0.3-0.1c-1.8-0.9-3.5-2.2-5.1-4c0.6-2.5,1.1-5,1.7-7.5c0-0.1,0-0.2,0.1-0.3
		c0.4,0.1,0.8,0.2,1.1,0.3c1.6,0.3,3.1,0.7,4.6,1.1c-0.1,0.9-0.1,1.7-0.2,2.6c0,0.5-0.1,1-0.1,1.6c0.3,0.6,1,1.2,2.1,1.8
		c1,0.6,2.2,1.1,3.6,1.4c0.9,0.2,1.7,0.3,2.4,0.2c0.7-0.1,1.2-0.3,1.7-0.6c0.4-0.3,0.7-0.8,0.9-1.4c0.2-0.6,0.1-1.1-0.1-1.7
		c-0.2-0.5-0.6-1.1-1.2-1.7c-0.6-0.6-1.4-1.3-2.5-2c-0.7-0.4-1.4-0.9-2-1.3c-1.6-1-2.9-1.9-3.9-2.8c-0.6-0.5-1.1-0.9-1.5-1.4h0
		c-0.7-0.8-1.3-1.6-1.6-2.5c-0.2-0.4-0.3-0.8-0.4-1.2h0c-0.2-1-0.2-2.2,0.1-3.4c0.4-1.7,1.2-3,2.5-4c1.3-1,2.9-1.7,4.9-2
		c0,0,0.1,0,0.1,0c1.5-0.2,3.1-0.2,4.8,0.1c0.2,0,0.4,0,0.5,0.1c0.3,0,0.6,0.1,0.9,0.2l0.7,0.2c0.2,0.1,0.5,0.1,0.7,0.2v0
		c2,0.5,3.8,1.2,5.3,2.1c1.9,1.1,3.4,2.3,4.6,3.8C379.6,155.6,379,158,378.3,160.4z M128.6,191.7c0.1-0.5,0.2-0.9,0.4-1.3
		c0.3-0.5,0.6-1,1-1.5c0.8-0.8,1.7-1.3,2.9-1.6c1.5-0.4,2.9-0.3,4,0.3c1.1,0.6,2,1.6,2.5,3c-0.2,0-0.5,0.1-0.7,0.2h0
		c-0.4,0.1-0.8,0.2-1.2,0.3c0-0.1-0.1-0.2-0.2-0.3v0c-0.4-0.9-0.9-1.5-1.5-1.8c-0.7-0.3-1.5-0.4-2.5-0.1c-1.1,0.3-1.8,0.8-2.3,1.7
		c-0.1,0.1-0.1,0.2-0.2,0.4c-0.5,1-0.5,2.3,0,3.9c0.1,0.5,0.2,0.9,0.3,1.3c0.4,1.5,1,2.6,1.9,3.3c0.9,0.7,1.9,0.9,3,0.6
		c1-0.3,1.8-0.7,2.2-1.3c0.4-0.6,0.6-1.5,0.5-2.7c0.6-0.2,1.2-0.3,1.9-0.5c0.2,1.5-0.1,2.8-0.8,3.8c-0.7,1-1.9,1.7-3.4,2.1
		c-1.7,0.4-3.1,0.2-4.5-0.7c-1.3-0.9-2.2-2.3-2.8-4.3c-0.1-0.4-0.2-0.9-0.4-1.3C128.5,194,128.4,192.8,128.6,191.7z M182.3,192.6
		L182.3,192.6c-0.6,0.1-1.1,0.2-1.7,0.2c0-0.1,0-0.2,0-0.3c-0.6-4.6-1.2-9.2-1.8-13.8c0.8-0.1,1.7-0.2,2.5-0.3
		c2.1,3.6,4.1,7.3,6.1,11c1.1-4,2.3-8,3.6-12c0.9-0.1,1.7-0.2,2.5-0.2c0.4,4.7,0.9,9.4,1.3,14.2l-1.9,0.2c-0.2-1.8-0.3-3.7-0.5-5.5
		c-0.1-2-0.3-4-0.4-6c-1.3,4-2.5,8-3.6,12c-0.5,0-1,0.1-1.4,0.2c-2-3.6-4-7.2-6.1-10.8c0.3,2,0.6,3.9,0.9,5.9
		c0.2,1.8,0.5,3.7,0.7,5.5C182.4,192.6,182.4,192.6,182.3,192.6C182.3,192.6,182.3,192.6,182.3,192.6z M316.1,196.2
		c0.6,0.2,1.3,0.3,1.9,0.5c-0.1,0.6-0.1,1.1,0.1,1.6c0.1,0.2,0.2,0.4,0.4,0.6c0.5,0.6,1.3,1.1,2.3,1.4c1,0.2,1.8,0.3,2.4,0
		c0.6-0.2,1-0.7,1.2-1.4c0-0.1,0.1-0.2,0.1-0.4c0.1-0.5-0.1-1-0.4-1.4c-0.4-0.5-1.2-1.1-2.4-1.8c-1.5-0.9-2.5-1.7-3.1-2.5
		c-0.6-0.8-0.8-1.7-0.5-2.7c0.3-1.1,0.9-1.9,2-2.4c1.1-0.5,2.4-0.5,3.8-0.2c1,0.3,1.9,0.7,2.5,1.2c0.7,0.6,1.2,1.2,1.4,2
		c0.2,0.8,0.3,1.5,0.1,2.3c-0.6-0.2-1.3-0.3-1.9-0.5c0.2-0.8,0.1-1.6-0.3-2.2c-0.4-0.6-1.1-1.1-2.2-1.3c-0.9-0.2-1.7-0.2-2.4,0
		c-0.6,0.3-1,0.8-1.2,1.5c-0.1,0.6,0,1.1,0.4,1.6c0.4,0.5,1.2,1.1,2.3,1.7c1.1,0.6,1.9,1.2,2.5,1.8c0.6,0.6,0.9,1.2,1.1,1.8
		c0.1,0.4,0.2,0.8,0.1,1.2c0,0.2-0.1,0.5-0.1,0.8c-0.3,1.1-1,1.9-2.1,2.3c-1.1,0.4-2.3,0.5-3.8,0.1c-1-0.2-1.8-0.7-2.6-1.2
		c-0.8-0.6-1.3-1.2-1.6-2c-0.1-0.1-0.1-0.2-0.1-0.4C315.9,197.5,315.9,196.9,316.1,196.2z M153.6,61.8c0-0.1,0.1-0.2,0.2-0.3
		c0,0,0,0,0,0c-0.1,0.3-0.2,0.5-0.4,0.8c0.2-0.1,0.4-0.3,0.6-0.3c0.3,0.5,0.6,1,1,1.4c0.2,0.2,0.4,0.5,0.5,0.7
		c0.3,0.5,1.2,1.2,2.6,2.3c0.8,0.6,1.9,1.5,2.1,1.8c0.1,0.2,0.4,1,0.6,1.5c0.5,1.4,0.8,2.2,1.3,2.6c0.7,0.5,1.8,0.3,2.9,0.1
		c0.5-0.1,1-0.2,1.3-0.2c0.3,0,1.2,0.8,1.8,2.2c0.2,0.6,0.7,1,1.3,1.3c0.3,0.1,0.6,0.2,1,0.2c1.1,1.5,2.2,3.2,3,3.7
		c1.4,1.1,1.8,2.7,2.5,3.8c0.7,1.2,2.9,4,2.9,5.1c0,1.2,0.4,1.1,1,2.4c0.6,1.3,0.9,2.4,1.2,4.5c-1.5-4.2-3.8-6.2-4-7.6
		c-0.2-1.4-2-0.7-2.5-2.4c-0.4-1.7-2.5-4.7-3.4-5.5c-0.8-0.7-5-4.7-5.2-4.9c0.1,0.2,0.9,2.3,0.6,3.2c-0.3,1,2.8,4.3,3,4.5
		c-0.2-0.2-4-3-4-4c0-1,0.1-1.5-0.9-2.5c-0.9-1-2.5-2.8-3.3-3.8c-0.7-1-2.5-1.4-5.1-2.6c-2.6-1.2-3.5-2.7-4.2-2.5s0.2,1.9,0.3,3.3
		c0.1,1.4,0.2,4.2-2.2,8.1c2.4-2.2,5.5-6.5,5.8-6.8c-0.1,0.3-1.3,3-2.1,5.1c-0.8,2.2-5.2,9.5-5.5,10c0.4-0.4,6.7-6.4,7.4-6.1
		c0.7,0.3-1.6,3.4-1.6,3.4l3,2.8l-2.7,4.5c0,0,7.5-7.4,7.7-7.4c-0.9,2.1-2,4.3-2,4.3l3.4,3.2c-0.3,0-3.6-0.7-4.4,0
		c-0.8,0.7-3.1,3.4-4.7,4l0.7,2.1l3.2-2.4c-0.1,0.2-1.9,3.6-3.2,5.1c-1.3,1.4-1.8,2.6-1.9,2.7c0.3-0.1,4.7-2.5,5.7-3.5
		c1-1.1,3.1-3.2,3.8-3.1c0.7,0.2,1.3,0.5,1.5,0.3c0.2-0.2,3.3-3.6,3.5-3.8c-0.1,0.2-1.8,4.3-2.6,5.2c-0.9,0.9-1.8-0.7-2.4-0.1
		c-0.7,0.5-2.9,2.7-2.9,2.7l3.4,2l2.5-3c0,0-0.6,4.2-1.7,6.3c-1.1,2.1-1.6,2.5-1.6,3.1c0,0.4,0.4,2,0.3,3c0,0.4-0.1,0.7-0.3,0.8
		c-0.4,0-0.9-0.2-1.4-0.6c-1-0.8-2.1-2.1-2.6-2.4c-0.8-0.5,0.6-2.6,1.4-3.5c0.8-0.9,0.7-1.3,0.4-1.4c-0.3-0.1-3.4,2-3.8,2
		c-0.5,0-2-1.8-3.1-2.3c-1.1-0.6-4-1-4-1s0.4-2.2,0.3-2.8c-0.2-0.6-0.5-1.1-0.2-1.7c0.4-0.6,0.1-1.1,0.3-1.7
		c0.1-0.6,1.4-1.7,1.5-1.8c-0.2,0.1-1.5,0.8-1.9,1.2c-0.5,0.5-0.2,1.2-0.7,2.1c-0.5,0.8-1.2,1-1.4,2c-0.2,1-0.8,3-2,4.4
		c-1.2,1.4-3.2,4.3-4.2,5.1c-0.8,0.7-2.8,4.1-3.6,5.2h0c-0.1,0.1-0.2,0.3-0.3,0.3c-0.2,0.2-1.9,2.2-3.8,4.5
		c-0.6,0.1-1.2,0.2-1.8,0.3c0.9-1.5,1.8-3.1,2.7-4.5c1.9-3.2,3.5-6,3.5-6.6c0.2-1.4-0.1-2.5,0.8-3.3c0.9-0.8,1.6-0.7,2.9-2.4
		c1.3-1.7,0.6-2.8,1.7-4.2c1.1-1.4,2.2-4.5,2.9-5.1c0.7-0.6,0.9,0.3,1.7-0.3c0.8-0.6,4.5-5.3,4.7-5.6c-0.3,0.2-4.6,3.9-5.2,4.2
		c-0.7,0.3-1.6,0-2.2,0.5c-0.6,0.5-1.7,2.6-1.7,2.6s0-2-0.4-3c-0.4-1-1-2-1-2s2.2-7,2.1-6.9s-2.8,5-3.6,6.1
		c-0.8,1.1,0.6,2.7,0.4,3.8c-0.2,1-1,3.2-1.8,3.6c-0.8,0.4,0.2,1.6-0.6,2.9c-0.9,1.3-1.4,0.9-1.8,1.4c-0.4,0.4-2.4,2.1-2.7,2.3
		c0.2-0.2,2.1-2,2.6-3.8c0.5-1.9,0-3.1,0.8-4c0.8-0.9,0.9-1.5,0.9-1.5s-1.5,1.5-2.7,2.5c-1.2,0.9-3.6,3.7-4.1,4.9
		c-0.5,1.2-3.6,5.7-5,7.1c-1.5,1.4-3.7,2.2-4.3,2.5c-0.6,0.4-3.2,3.2-4.1,3.8c-0.3,0.2-1.6,2-3.2,4.3h0c-1,1.5-2.2,3.2-3.2,4.8
		c-0.4,0.1-0.7,0.1-1,0.2c0.7-1.4,1.5-3,2.3-4.6h0c1.9-3.8,3.9-7.5,4.5-8c1.5-1.2,2.6-3.7,6.9-4.1c2.7-0.3,3.7-5.9,3.9-6.2l-1.2,0.4
		c0,0-0.2-1.1,0-1.7c0.2-0.6,2.5-2.4,3.9-5.9c-2.3,3.2-3,3.9-4.3,4.6c-1.3,0.7-4.1,5.8-4.9,6.5c-0.8,0.7-2.6,1.2-2.9,1.1
		c-0.4,0,0-3.6,1.7-5.7c1.5-2,2.6-3.9,2.8-4.1c-0.2,0.2-2.1,2.1-3.8,3.2c-0.3,0.2-0.6,0.5-0.9,0.7c1.2-2.1,2.7-5,4.6-9
		c1.7-3.5,4.2-6.6,7.1-9.3c0.7,2,1.9,5.6,1.3,5.4c-1.5-0.4-2.9,2.4-3.9,3.7c-0.9,1.2-3.5,6.9-3.8,7.6c0.4-0.5,3-4.5,5-6.2
		c2.1-1.8,2.8-1.4,3.8-2.3c0.9-0.9,1.7-8.7,4.1-12.4c2.5-3.7,2.1-1.2,2.9-1.9c0.8-0.7,2.5-1.6,2.5-1.6s-0.5,2-1.6,3.9
		c-1.1,1.8-0.5,3.6-0.5,4.6c0.1,0.9-1.9,3.9-2,4.1c0.2-0.2,3.2-2.7,3.2-3.8c0-1.2-0.5-2.3,0.4-4c0.6-1.1,2.7-4.7,4.5-7.6h0
		c1.4-0.8,3.5-2.5,4.4-4c0,0,0,0,0,0c0.3-0.4,0.5-0.8,0.5-1c0-0.6,0.1-1,0.2-1.4c0.1-0.1,0.2-0.2,0.3-0.2c0.7-0.3,1.3-1.1,1.8-1.9
		c0,0,0,0,0,0c0,0,0,0,0-0.1c0.2-0.3,0.3-0.6,0.5-0.9c0,0,0,0-0.1,0C153.4,62.1,153.5,61.9,153.6,61.8z"/>
	<path d="M209.1,180.4c0-0.8-0.3-1.5-0.9-2c-0.6-0.5-1.4-0.7-2.3-0.7c-1.2,0.1-2.4,0.1-3.6,0.2c0.1,1.9,0.2,3.7,0.4,5.6
		c1.1-0.1,2.3-0.2,3.5-0.2c1-0.1,1.8-0.3,2.3-0.8C208.9,182,209.2,181.3,209.1,180.4z"/>
	<path d="M166.1,189.7c1.6-0.3,3.3-0.5,4.9-0.8c-1.2-2.1-2.3-4.1-3.5-6.2C167,185.1,166.6,187.4,166.1,189.7z"/>
	<path d="M308.5,185.7c-1.2-0.3-2.4-0.5-3.6-0.8c-0.4,1.8-0.8,3.6-1.1,5.5c1.1,0.2,2.3,0.5,3.4,0.7c1,0.2,1.9,0.2,2.5-0.2
		c0.6-0.3,1.1-0.9,1.3-1.8c0.2-0.8,0.1-1.5-0.4-2.2C310.1,186.3,309.4,185.9,308.5,185.7z"/>
	<path d="M230.9,177c-1.2,0-2.2,0.4-2.9,1.3c-0.7,0.9-1.1,2.2-1.1,3.8v1c0,1.6,0.4,2.9,1.1,3.9c0.7,0.9,1.7,1.4,2.9,1.4
		c1.2,0,2.2-0.4,2.9-1.3c0.7-0.9,1.1-2.1,1.1-3.8c0-0.3,0-0.7,0-1.1c0-1.7-0.3-3-1-3.9C233.1,177.5,232.1,177,230.9,177z"/>
</g>
</svg>
